# xmcd
#
# Track frame offsets: 
#        150
#        17154
#        33039
#        49965
#        65682
#        80878
#        96986
#        115066
#        132834
#        149402
#        166849
#        184720
#        201240
#        216680
#        230981
#        245291
#        260183
#        289325
#        319423
#
# Disc length: 4715 seconds
#
# Revision: 5
# Processed by: cddbd v1.5.2PL0 Copyright (c) Steve Scherf et al.
# Submitted via: ExactAudioCopy v1.0b3
#
DISCID=33126913
DTITLE=Various Artist - Dance Attack! Vol. 2 - CD 2
DYEAR=2002
DGENRE=Misc
TTITLE0=666 - Rhythm Takes Control (Screen Cut Radio Mix)
TTITLE1=Future Breeze - Ocean Of Eternity (Vocal Radion Edit)
TTITLE2=Novaspace - Time After Time (Radio Edit)
TTITLE3=Adrima - I Can't Stand It (Radio Mix)
TTITLE4=Marc Maris Vs. Ramone - Eternity (Radio Single)
TTITLE5=Marco Dejonge Feat. Ice MC - Think About The Way 2002 (Villa V
TTITLE5=s. Dave Soerensen Radio Mix)
TTITLE6=Aceproject - Summer Of Love (Single Mix)
TTITLE7=Praying Mantis - Silence Of Being Lonely (Radio Mix)
TTITLE8=Breeze Feat. DJ Perhan - Out Of My Life (Radio Edit)
TTITLE9=Project S.S.E. Feat. Jay Supreme - Under The Rainbow (Radio Ed
TTITLE9=it)
TTITLE10=DJ Ross - Dreamland (Radio Party Mix)
TTITLE11=Shelley - I Will Follow You (Radio Edit)
TTITLE12=Sophistic - Chase The Sun
TTITLE13=Kim Carnes - Bette Davis Eyes 2002 (Single Cut)
TTITLE14=Naksi Vs. Brunner - Come On (Club Radio Mix)
TTITLE15=KMC Feat. Dhany - I Feel So Fine (Radio Edit)
TTITLE16=The Moon - Shake It (Xtd Mix)
TTITLE17=DJ Melvin - Set U Free (Club Caviar Rmx)
TTITLE18=Lefkara - Experiment (Club Mix)
EXTD=
EXTT0=
EXTT1=
EXTT2=
EXTT3=
EXTT4=
EXTT5=
EXTT6=
EXTT7=
EXTT8=
EXTT9=
EXTT10=
EXTT11=
EXTT12=
EXTT13=
EXTT14=
EXTT15=
EXTT16=
EXTT17=
EXTT18=
PLAYORDER=
